<?xml version="1.0" encoding="UTF-8"?><svg id="Ebene_1" xmlns="http://www.w3.org/2000/svg" viewBox="0 0 50 50"><defs><style>.cls-1{fill:#111336;}</style></defs><path class="cls-1" d="m38.76,12.67H13.06s-.08.01-.12.02h-1.7c-1.83,0-3.31,1.48-3.31,3.31v18.01c0,1.82,1.49,3.31,3.31,3.31h27.52c1.83,0,3.31-1.48,3.31-3.31V15.98c0-1.82-1.49-3.31-3.31-3.31Zm1.21,6.05s0,0,0,0v15.29c0,.67-.54,1.21-1.21,1.21h-22.31v-18.35h23.53v1.85Z"/><path class="cls-1" d="m25.6,32.4c.8.49,1.68.74,2.6.74s1.81-.25,2.61-.75c.77-.49,1.39-1.15,1.86-1.97.46-.84.7-1.76.7-2.74,0-.74-.24-1.62-.75-2.69-.33-.71-.84-1.6-1.51-2.65-.44-.68-.93-1.39-1.46-2.12l-.66-.88c-.2-.25-.49-.39-.8-.39s-.6.15-.8.4l-.65.88c-.52.71-1.01,1.42-1.46,2.11-.67,1.04-1.17,1.93-1.51,2.65-.5,1.07-.75,1.95-.75,2.69,0,.98.24,1.9.71,2.74.45.81,1.07,1.48,1.85,1.97Zm-.38-5.4c.1-.32.24-.68.41-1.05.35-.76.81-1.57,1.34-2.41.38-.6.79-1.19,1.23-1.77.43.57.85,1.16,1.23,1.78.68,1.06,1.37,2.22,1.75,3.46.11.37.14.58.14.69,0,.6-.14,1.16-.42,1.67s-.66.91-1.14,1.21c-.47.29-1,.44-1.56.44s-1.09-.15-1.56-.44c-.48-.29-.86-.7-1.14-1.21-.28-.5-.42-1.07-.42-1.67,0-.11.02-.32.14-.69Z"/></svg>