<?xml version="1.0" encoding="UTF-8"?><svg id="Ebene_1" xmlns="http://www.w3.org/2000/svg" viewBox="0 0 135 135"><defs><style>.cls-1{fill:lime;}.cls-2{fill:#111336;}</style></defs><path class="cls-1" d="m106.27,75.45c-1.66,0-3,1.34-3,3v27.36c0,1.91-1.55,3.46-3.46,3.46h-63.75v-52.44h38.39c3.31,0,6-2.69,6-6s-2.71-5.93-6.01-5.93H21.19c-5.22,0-9.46,4.24-9.46,9.46v51.46c0,5.21,4.25,9.46,9.46,9.46h78.61c5.22,0,9.46-4.24,9.46-9.46v-27.36c0-1.66-1.34-3-3-3Z"/><path class="cls-2" d="m106.27,66.91c-3.05,0-5.93-.82-8.56-2.43-2.56-1.62-4.6-3.8-6.08-6.49-1.56-2.77-2.36-5.81-2.36-9.05,0-2.42.81-5.34,2.49-8.92,1.13-2.42,2.85-5.44,5.11-8.98,1.51-2.34,3.19-4.77,4.97-7.2l2.22-2.99c.56-.71,1.36-1.11,2.2-1.11s1.64.39,2.18,1.08l2.24,3.01c1.78,2.43,3.45,4.85,4.97,7.21,2.27,3.55,3.99,6.57,5.12,8.98,1.68,3.58,2.49,6.5,2.49,8.92,0,3.23-.77,6.28-2.3,9.05-1.53,2.69-3.59,4.87-6.13,6.48-2.64,1.62-5.52,2.44-8.57,2.44Zm0-39.36c-1.71,2.21-3.32,4.49-4.79,6.82-1.86,2.89-3.42,5.68-4.64,8.31-.6,1.31-1.09,2.56-1.44,3.69-.33,1.07-.5,1.94-.5,2.56,0,2.18.51,4.21,1.52,6.04,1.01,1.84,2.4,3.31,4.14,4.38,1.73,1.07,3.65,1.61,5.71,1.61s3.98-.54,5.71-1.61c1.74-1.07,3.13-2.54,4.14-4.38,1.01-1.83,1.52-3.86,1.52-6.04,0-.62-.17-1.48-.5-2.56-1.32-4.26-3.68-8.27-6.08-12-1.48-2.35-3.09-4.65-4.79-6.83Z"/></svg>