<?xml version="1.0" encoding="UTF-8"?><svg id="Ebene_1" xmlns="http://www.w3.org/2000/svg" viewBox="0 0 50 50"><defs><style>.cls-1{fill:lime;}.cls-2{fill:#111336;}</style></defs><path class="cls-1" d="m38.76,12.67H13.06s-.08.01-.12.02h-1.7c-1.83,0-3.31,1.48-3.31,3.31v18.01c0,1.82,1.49,3.31,3.31,3.31h27.52c1.83,0,3.31-1.48,3.31-3.31V15.98c0-1.82-1.49-3.31-3.31-3.31Zm1.21,21.34c0,.67-.54,1.21-1.21,1.21h-22.31v-18.35h23.53v1.85s0,0,0,0v15.29Z"/><path class="cls-2" d="m28.21,33.14c-.93,0-1.81-.25-2.6-.74-.78-.49-1.4-1.15-1.85-1.97-.47-.84-.71-1.76-.71-2.74,0-.74.24-1.62.75-2.69.33-.72.84-1.61,1.51-2.65.45-.69.94-1.4,1.46-2.11l.65-.88c.2-.26.5-.4.8-.4s.6.14.8.39l.66.88c.53.72,1.02,1.43,1.46,2.12.67,1.04,1.18,1.93,1.51,2.65.5,1.07.75,1.95.75,2.69,0,.98-.23,1.9-.7,2.74-.46.82-1.09,1.48-1.86,1.97-.8.5-1.68.75-2.61.75Zm0-11.37c-.44.58-.85,1.17-1.23,1.77-.54.83-.99,1.64-1.34,2.41-.17.38-.31.73-.41,1.05-.11.37-.14.58-.14.69,0,.6.14,1.16.42,1.67.28.5.66.91,1.14,1.21.47.29,1,.44,1.56.44s1.09-.15,1.56-.44c.48-.29.86-.7,1.14-1.21s.42-1.07.42-1.67c0-.11-.02-.32-.14-.69-.38-1.24-1.07-2.39-1.75-3.46-.39-.61-.8-1.21-1.23-1.78Z"/></svg>