<?xml version="1.0" encoding="utf-8"?>
<!-- Generator: Adobe Illustrator 27.9.0, SVG Export Plug-In . SVG Version: 6.00 Build 0)  -->
<svg version="1.1" id="Ebene_1" xmlns="http://www.w3.org/2000/svg" xmlns:xlink="http://www.w3.org/1999/xlink" x="0px" y="0px"
	 viewBox="0 0 256 256" style="enable-background:new 0 0 256 256;" xml:space="preserve">
<style type="text/css">
	.st0{fill:#00FF00;}
	.st1{fill:#111336;}
</style>
<path class="st0" d="M199.6,132.6c-2.8,0-5.1,2.3-5.1,5.1v47c0,3.3-2.7,5.9-5.9,5.9H79v-90h65.9c5.7,0,10.3-4.6,10.3-10.3
	c0-5.7-4.7-10.2-10.3-10.2H53.5c-9,0-16.2,7.3-16.2,16.2v88.3c0,8.9,7.3,16.2,16.2,16.2h134.9c9,0,16.2-7.3,16.2-16.2v-47
	C204.7,134.9,202.4,132.6,199.6,132.6L199.6,132.6z"/>
<path class="st1" d="M199.6,118c-5.2,0-10.2-1.4-14.7-4.2c-4.4-2.8-7.9-6.5-10.4-11.1c-2.7-4.8-4.1-10-4.1-15.5
	c0-4.2,1.4-9.2,4.3-15.3c1.9-4.2,4.9-9.3,8.8-15.4c2.6-4,5.5-8.2,8.5-12.4l3.8-5.1c1-1.2,2.3-1.9,3.8-1.9c1.4,0,2.8,0.7,3.7,1.9
	l3.8,5.2c3.1,4.2,5.9,8.3,8.5,12.4c3.9,6.1,6.8,11.3,8.8,15.4c2.9,6.1,4.3,11.2,4.3,15.3c0,5.5-1.3,10.8-3.9,15.5
	c-2.6,4.6-6.2,8.4-10.5,11.1C209.7,116.6,204.8,118,199.6,118L199.6,118z M199.6,50.4c-2.9,3.8-5.7,7.7-8.2,11.7
	c-3.2,5-5.9,9.8-8,14.3c-1,2.2-1.9,4.4-2.5,6.3c-0.6,1.8-0.9,3.3-0.9,4.4c0,3.7,0.9,7.2,2.6,10.4c1.7,3.2,4.1,5.7,7.1,7.5
	c3,1.8,6.3,2.8,9.8,2.8c3.5,0,6.8-0.9,9.8-2.8c3-1.8,5.4-4.4,7.1-7.5c1.7-3.1,2.6-6.6,2.6-10.4c0-1.1-0.3-2.5-0.9-4.4
	c-2.3-7.3-6.3-14.2-10.4-20.6C205.2,58.1,202.5,54.1,199.6,50.4L199.6,50.4z"/>
</svg>
